<?xml version="1.0" standalone="no"?>
<!DOCTYPE svg PUBLIC "-//W3C//DTD SVG 20010904//EN"
 "http://www.w3.org/TR/2001/REC-SVG-20010904/DTD/svg10.dtd">
<svg version="1.0" xmlns="http://www.w3.org/2000/svg"
 width="105.000000pt" height="105.000000pt" viewBox="0 0 105.000000 105.000000"
 preserveAspectRatio="xMidYMid meet">
<metadata>
Created by potrace 1.11, written by Peter Selinger 2001-2013
</metadata>
<g transform="translate(0.000000,105.000000) scale(0.100000,-0.100000)"
fill="#000000" stroke="none">
<path d="M490 1010 c0 -22 -4 -40 -10 -40 -6 0 -10 -55 -11 -142 0 -79 -3
-137 -6 -130 -3 9 -41 12 -139 12 l-134 0 1 -52 c0 -29 3 -47 6 -40 6 14 73
17 73 2 0 -6 45 -10 113 -11 61 0 106 -3 100 -6 -16 -6 -19 -243 -3 -243 6 0
10 -9 10 -20 0 -11 -4 -20 -10 -20 -6 0 -10 -57 -10 -150 l0 -150 50 0 50 0 2
83 c4 110 5 173 6 365 2 152 3 162 21 162 11 0 22 -6 24 -12 4 -10 6 -10 6 0
1 14 51 17 51 2 0 -5 14 -10 30 -10 17 0 30 5 30 10 0 6 11 10 25 10 14 0 25
-4 25 -10 0 -14 27 -12 34 3 5 10 7 10 12 0 3 -7 12 -13 20 -13 10 0 14 14 14
50 l0 50 -148 0 -149 0 2 158 c1 86 0 163 -3 170 -2 7 -21 12 -43 12 -39 0
-39 0 -39 -40z"/>
</g>
</svg>
