<?xml version="1.0" encoding="UTF-8"?>
<svg xmlns="http://www.w3.org/2000/svg" xmlns:xlink="http://www.w3.org/1999/xlink" width="26pt" height="26pt" viewBox="0 0 26 26" version="1.1">
<g id="surface2474278">
<path style=" stroke:none;fill-rule:nonzero;fill:rgb(100%,100%,100%);fill-opacity:1;" d="M 0 13 C 0 5.820312 5.820312 0 13 0 C 20.179688 0 26 5.820312 26 13 C 26 20.179688 20.179688 26 13 26 C 5.820312 26 0 20.179688 0 13 Z M 13 23.921875 C 19.03125 23.921875 23.921875 19.03125 23.921875 13 C 23.921875 6.96875 19.03125 2.078125 13 2.078125 C 6.96875 2.078125 2.078125 6.96875 2.078125 13 C 2.078125 19.03125 6.96875 23.921875 13 23.921875 Z M 13 23.921875 "/>
<path transform="translate(13, -5) rotate(45)" style=" stroke:none;fill-rule:nonzero;fill:rgb(100%,100%,100%);fill-opacity:1;" d="M 19.464844 17.914062 L 17.910156 19.464844 C 17.628906 19.75 17.164062 19.75 16.878906 19.464844 L 13 15.585938 L 9.125 19.464844 C 8.835938 19.75 8.371094 19.75 8.089844 19.464844 L 6.535156 17.914062 C 6.25 17.628906 6.25 17.164062 6.535156 16.878906 L 10.414062 13 L 6.535156 9.125 C 6.253906 8.835938 6.253906 8.371094 6.535156 8.089844 L 8.089844 6.535156 C 8.371094 6.25 8.835938 6.25 9.125 6.535156 L 13 10.414062 L 16.878906 6.535156 C 17.164062 6.25 17.628906 6.25 17.910156 6.535156 L 19.464844 8.085938 C 19.75 8.371094 19.75 8.835938 19.464844 9.125 L 15.585938 13 L 19.464844 16.878906 C 19.75 17.164062 19.75 17.628906 19.464844 17.914062 Z M 19.464844 17.914062 "/>
</g>
</svg>
